<?xml version="1.0" encoding="UTF-8" standalone="no"?>
<!-- Uploaded to: SVG Repo, www.svgrepo.com, Generator: SVG Repo Mixer Tools -->

<svg
   width="700"
   height="489"
   viewBox="0 0 14 9.78"
   fill="none"
   version="1.1"
   id="svg2"
   xmlns="http://www.w3.org/2000/svg"
   xmlns:svg="http://www.w3.org/2000/svg">
  <defs
     id="defs2" />
  <path
     fill="#ff0000"
     d="m 13.712,1.5230001 a 1.754,1.754 0 0 0 -1.234,-1.234 C 11.382,1.0490417e-7 7,1.0490417e-7 7,1.0490417e-7 c 0,0 -4.382,0 -5.478,0.28899999509583 -0.6,0.161 -1.072,0.634 -1.234,1.234 -0.288,1.095 -0.288,3.367 -0.288,3.367 0,0 0,2.283 0.288,3.367 0.162,0.6 0.635,1.073 1.234,1.234 1.096,0.289 5.478,0.289 5.478,0.289 0,0 4.382,0 5.478,-0.289 a 1.754,1.754 0 0 0 1.234,-1.234 c 0.288,-1.095 0.288,-3.367 0.288,-3.367 0,0 0,-2.272 -0.288,-3.367 z"
     id="path1" />
  <path
     fill="#ffffff"
     d="m 5.593,7.0000001 3.644,-2.098 -3.644,-2.11 z"
     id="path2" />
</svg>
